<svg id="Слой_1" data-name="Слой 1" xmlns="http://www.w3.org/2000/svg" viewBox="0 0 98.03 93.14"><defs><style>.cls-1{fill:#c23307;}.cls-1,.cls-2{stroke:#c23307;stroke-linejoin:round;}.cls-2{fill:none;}.cls-3{fill:#575656;}.cls-4{fill:#2b2a2a;}.cls-5{fill:#161616;}</style></defs><title>preloader2</title><path class="cls-1" d="M189.12,121.92a59.51,59.51,0,0,0,2.38,14.76,44.18,44.18,0,0,0,6.88,13.74H149.88Zm0,0" transform="translate(-100.98 -103.43)"/><path class="cls-1" d="M189.64,178.4a59.51,59.51,0,0,0-13.34,6.75,44.18,44.18,0,0,0-11,10.72l-14.71-46.21Zm0,0" transform="translate(-100.98 -103.43)"/><path class="cls-1" d="M134.85,196.07a59.51,59.51,0,0,0-10.49-10.66,44.18,44.18,0,0,0-13.57-7.22l39.54-28.08Zm0,0" transform="translate(-100.98 -103.43)"/><path class="cls-1" d="M101.51,150.22a59.51,59.51,0,0,0,6.7-13.37,44.18,44.18,0,0,0,2.46-15.17L150,150Zm0,0" transform="translate(-100.98 -103.43)"/><path class="cls-1" d="M135,104.08a59.51,59.51,0,0,0,14.77,2.3,44.18,44.18,0,0,0,15.2-2.3L150,150.2Zm0,0" transform="translate(-100.98 -103.43)"/><path class="cls-2" d="M165.07,104.56a59.51,59.51,0,0,0,10.57,10.57,44.18,44.18,0,0,0,13.62,7.12l-39.32,28.39Zm0,0" transform="translate(-100.98 -103.43)"/><path class="cls-2" d="M198.52,150.18a59.51,59.51,0,0,0-6.58,13.43,44.18,44.18,0,0,0-2.32,15.19L150,150.8Zm0,0" transform="translate(-100.98 -103.43)"/><path class="cls-2" d="M165.19,195.64a59.51,59.51,0,0,0-14.77-2.34,44.18,44.18,0,0,0-15.2,2.25l15.11-46.08Zm0,0" transform="translate(-100.98 -103.43)"/><path class="cls-2" d="M110.59,178.44a59.51,59.51,0,0,0-2.3-14.77,44.18,44.18,0,0,0-6.8-13.78L150,150.16Zm0,0" transform="translate(-100.98 -103.43)"/><path class="cls-2" d="M110.89,121.76a59.51,59.51,0,0,0,13.24-6.95A44.18,44.18,0,0,0,135,103.93l15.4,46Zm0,0" transform="translate(-100.98 -103.43)"/><path class="cls-3" d="M154.1,150a4.1,4.1,0,1,1-4.1-4.1,4.1,4.1,0,0,1,4.1,4.1h0Zm0,0" transform="translate(-100.98 -103.43)"/><circle class="cls-4" cx="49.02" cy="46.57" r="2.51"/><circle class="cls-5" cx="48.92" cy="46.58" r="0.92"/></svg>